<mxfile host="app.diagrams.net" modified="2022-03-17T13:46:02.930Z" agent="5.0 (Windows NT 10.0; Win64; x64) AppleWebKit/537.36 (KHTML, like Gecko) Chrome/99.0.4844.51 Safari/537.36" etag="9ks-jR1zOHsEgni_WPVe" version="17.1.3" type="github">
  <diagram id="ratLpw4YvEn0WvuaqK_X" name="Page-1">
    <mxGraphModel dx="868" dy="482" grid="1" gridSize="10" guides="1" tooltips="1" connect="1" arrows="1" fold="1" page="1" pageScale="1" pageWidth="827" pageHeight="1169" math="0" shadow="0">
      <root>
        <mxCell id="0" />
        <mxCell id="1" parent="0" />
        <mxCell id="fCF7obU863NzQbuuCOXE-1" value="INÍCIO/FIM" style="rounded=1;whiteSpace=wrap;html=1;" vertex="1" parent="1">
          <mxGeometry x="10" y="660" width="120" height="60" as="geometry" />
        </mxCell>
        <mxCell id="fCF7obU863NzQbuuCOXE-3" value="PROCESSAMENTO" style="rounded=0;whiteSpace=wrap;html=1;" vertex="1" parent="1">
          <mxGeometry x="180" y="660" width="120" height="60" as="geometry" />
        </mxCell>
        <mxCell id="fCF7obU863NzQbuuCOXE-4" value="ENTRADA" style="shape=parallelogram;perimeter=parallelogramPerimeter;whiteSpace=wrap;html=1;fixedSize=1;" vertex="1" parent="1">
          <mxGeometry y="760" width="120" height="60" as="geometry" />
        </mxCell>
        <mxCell id="fCF7obU863NzQbuuCOXE-5" value="DECISÃO" style="rhombus;whiteSpace=wrap;html=1;" vertex="1" parent="1">
          <mxGeometry x="190" y="760" width="80" height="80" as="geometry" />
        </mxCell>
        <mxCell id="fCF7obU863NzQbuuCOXE-7" value="SAIDA" style="shape=document;whiteSpace=wrap;html=1;boundedLbl=1;" vertex="1" parent="1">
          <mxGeometry y="890" width="120" height="80" as="geometry" />
        </mxCell>
        <mxCell id="fCF7obU863NzQbuuCOXE-12" value="" style="edgeStyle=orthogonalEdgeStyle;rounded=0;orthogonalLoop=1;jettySize=auto;html=1;" edge="1" parent="1" source="fCF7obU863NzQbuuCOXE-8" target="fCF7obU863NzQbuuCOXE-9">
          <mxGeometry relative="1" as="geometry" />
        </mxCell>
        <mxCell id="fCF7obU863NzQbuuCOXE-8" value="INÍCIO/FIM" style="rounded=1;whiteSpace=wrap;html=1;" vertex="1" parent="1">
          <mxGeometry x="690" y="540" width="120" height="60" as="geometry" />
        </mxCell>
        <mxCell id="fCF7obU863NzQbuuCOXE-13" value="" style="edgeStyle=orthogonalEdgeStyle;rounded=0;orthogonalLoop=1;jettySize=auto;html=1;" edge="1" parent="1" source="fCF7obU863NzQbuuCOXE-9" target="fCF7obU863NzQbuuCOXE-11">
          <mxGeometry relative="1" as="geometry" />
        </mxCell>
        <mxCell id="fCF7obU863NzQbuuCOXE-9" value="a b&amp;nbsp;" style="shape=parallelogram;perimeter=parallelogramPerimeter;whiteSpace=wrap;html=1;fixedSize=1;" vertex="1" parent="1">
          <mxGeometry x="690" y="640" width="120" height="60" as="geometry" />
        </mxCell>
        <mxCell id="fCF7obU863NzQbuuCOXE-30" value="" style="edgeStyle=orthogonalEdgeStyle;rounded=0;orthogonalLoop=1;jettySize=auto;html=1;" edge="1" parent="1" source="fCF7obU863NzQbuuCOXE-10" target="fCF7obU863NzQbuuCOXE-27">
          <mxGeometry relative="1" as="geometry" />
        </mxCell>
        <mxCell id="fCF7obU863NzQbuuCOXE-10" value="c" style="shape=document;whiteSpace=wrap;html=1;boundedLbl=1;" vertex="1" parent="1">
          <mxGeometry x="690" y="860" width="120" height="80" as="geometry" />
        </mxCell>
        <mxCell id="fCF7obU863NzQbuuCOXE-14" value="" style="edgeStyle=orthogonalEdgeStyle;rounded=0;orthogonalLoop=1;jettySize=auto;html=1;" edge="1" parent="1" source="fCF7obU863NzQbuuCOXE-11" target="fCF7obU863NzQbuuCOXE-10">
          <mxGeometry relative="1" as="geometry" />
        </mxCell>
        <mxCell id="fCF7obU863NzQbuuCOXE-11" value="c = a + b" style="rounded=0;whiteSpace=wrap;html=1;" vertex="1" parent="1">
          <mxGeometry x="690" y="760" width="120" height="60" as="geometry" />
        </mxCell>
        <mxCell id="fCF7obU863NzQbuuCOXE-15" value="" style="edgeStyle=orthogonalEdgeStyle;rounded=0;orthogonalLoop=1;jettySize=auto;html=1;" edge="1" parent="1" source="fCF7obU863NzQbuuCOXE-16" target="fCF7obU863NzQbuuCOXE-18">
          <mxGeometry relative="1" as="geometry" />
        </mxCell>
        <mxCell id="fCF7obU863NzQbuuCOXE-16" value="INÍCIO/FIM" style="rounded=1;whiteSpace=wrap;html=1;" vertex="1" parent="1">
          <mxGeometry x="400" y="60" width="120" height="60" as="geometry" />
        </mxCell>
        <mxCell id="fCF7obU863NzQbuuCOXE-24" value="" style="edgeStyle=orthogonalEdgeStyle;rounded=0;orthogonalLoop=1;jettySize=auto;html=1;" edge="1" parent="1" source="fCF7obU863NzQbuuCOXE-18" target="fCF7obU863NzQbuuCOXE-22">
          <mxGeometry relative="1" as="geometry" />
        </mxCell>
        <mxCell id="fCF7obU863NzQbuuCOXE-18" value="a b&amp;nbsp;" style="shape=parallelogram;perimeter=parallelogramPerimeter;whiteSpace=wrap;html=1;fixedSize=1;" vertex="1" parent="1">
          <mxGeometry x="400" y="160" width="120" height="60" as="geometry" />
        </mxCell>
        <mxCell id="fCF7obU863NzQbuuCOXE-29" value="" style="edgeStyle=orthogonalEdgeStyle;rounded=0;orthogonalLoop=1;jettySize=auto;html=1;" edge="1" parent="1" source="fCF7obU863NzQbuuCOXE-19" target="fCF7obU863NzQbuuCOXE-26">
          <mxGeometry relative="1" as="geometry" />
        </mxCell>
        <mxCell id="fCF7obU863NzQbuuCOXE-19" value="a" style="shape=document;whiteSpace=wrap;html=1;boundedLbl=1;" vertex="1" parent="1">
          <mxGeometry x="400" y="360" width="120" height="80" as="geometry" />
        </mxCell>
        <mxCell id="fCF7obU863NzQbuuCOXE-38" value="verdadeiro" style="edgeStyle=orthogonalEdgeStyle;rounded=0;orthogonalLoop=1;jettySize=auto;html=1;" edge="1" parent="1" source="fCF7obU863NzQbuuCOXE-22" target="fCF7obU863NzQbuuCOXE-19">
          <mxGeometry relative="1" as="geometry" />
        </mxCell>
        <mxCell id="fCF7obU863NzQbuuCOXE-40" value="falso" style="edgeStyle=orthogonalEdgeStyle;rounded=0;orthogonalLoop=1;jettySize=auto;html=1;" edge="1" parent="1" source="fCF7obU863NzQbuuCOXE-22" target="fCF7obU863NzQbuuCOXE-39">
          <mxGeometry relative="1" as="geometry" />
        </mxCell>
        <mxCell id="fCF7obU863NzQbuuCOXE-50" style="edgeStyle=orthogonalEdgeStyle;rounded=0;orthogonalLoop=1;jettySize=auto;html=1;" edge="1" parent="1" source="fCF7obU863NzQbuuCOXE-22" target="fCF7obU863NzQbuuCOXE-43">
          <mxGeometry relative="1" as="geometry" />
        </mxCell>
        <mxCell id="fCF7obU863NzQbuuCOXE-22" value="a &amp;gt; b&amp;nbsp;" style="rhombus;whiteSpace=wrap;html=1;" vertex="1" parent="1">
          <mxGeometry x="420" y="250" width="80" height="80" as="geometry" />
        </mxCell>
        <mxCell id="fCF7obU863NzQbuuCOXE-26" value="INÍCIO/FIM" style="rounded=1;whiteSpace=wrap;html=1;" vertex="1" parent="1">
          <mxGeometry x="400" y="470" width="120" height="60" as="geometry" />
        </mxCell>
        <mxCell id="fCF7obU863NzQbuuCOXE-27" value="INÍCIO/FIM" style="rounded=1;whiteSpace=wrap;html=1;" vertex="1" parent="1">
          <mxGeometry x="690" y="990" width="120" height="60" as="geometry" />
        </mxCell>
        <mxCell id="fCF7obU863NzQbuuCOXE-42" value="" style="edgeStyle=orthogonalEdgeStyle;rounded=0;orthogonalLoop=1;jettySize=auto;html=1;" edge="1" parent="1" source="fCF7obU863NzQbuuCOXE-39" target="fCF7obU863NzQbuuCOXE-41">
          <mxGeometry relative="1" as="geometry" />
        </mxCell>
        <mxCell id="fCF7obU863NzQbuuCOXE-39" value="b&amp;nbsp;" style="shape=document;whiteSpace=wrap;html=1;boundedLbl=1;" vertex="1" parent="1">
          <mxGeometry x="570" y="310" width="120" height="80" as="geometry" />
        </mxCell>
        <mxCell id="fCF7obU863NzQbuuCOXE-41" value="INÍCIO/FIM" style="rounded=1;whiteSpace=wrap;html=1;" vertex="1" parent="1">
          <mxGeometry x="570" y="450" width="120" height="60" as="geometry" />
        </mxCell>
        <mxCell id="fCF7obU863NzQbuuCOXE-43" value="a = b&amp;nbsp;" style="shape=document;whiteSpace=wrap;html=1;boundedLbl=1;" vertex="1" parent="1">
          <mxGeometry x="750" y="250" width="120" height="80" as="geometry" />
        </mxCell>
      </root>
    </mxGraphModel>
  </diagram>
</mxfile>
